<?xml version="1.0" encoding="utf-8"?>
<!-- Generator: Adobe Illustrator 27.2.0, SVG Export Plug-In . SVG Version: 6.00 Build 0)  -->
<svg version="1.1" id="Layer_1" xmlns="http://www.w3.org/2000/svg" xmlns:xlink="http://www.w3.org/1999/xlink" x="0px" y="0px"
	 viewBox="0 0 512 512" style="enable-background:new 0 0 512 512;" xml:space="preserve">
<style type="text/css">
	.st0{fill:#E30613;}
</style>
<g>
	<g>
		<path class="st0" d="M282.7,1v35.2c106.5,0,193.4,86.7,193.4,193.4h35C511.1,103.4,408.7,1,282.7,1z M100.9,53.9
			c-9.3,0-18.4,3-25.9,9.1l-0.8,0.7l-55.3,56.9l1.2-1.1C1.7,135.3-3.4,160.1,4.4,181c14.8,42.7,52.5,125.3,127,199.6
			c74.7,74.8,158.1,110.9,199.3,127l0.4,0.1l0.4,0.1c21.3,7.2,44.4,2.1,60.9-12.1l0.5-0.4l55-55c14.5-14.5,14.5-40.1,0-54.7l-72-72
			c-14.6-14.6-40.1-14.6-54.9,0l-34.8,34.8c-12.5-5.9-43.2-21.4-72.3-49.2c-28.8-27.5-43.5-59.2-48.8-71.5l35.2-35.2
			c15.5-15.5,16.3-41.8-1.5-56l1.6,1.5l-72.7-74.5l-0.8-0.7C119.3,56.8,110,53.9,100.9,53.9z M282.7,71.2v35.2
			c67.8,0,122.9,55.2,122.9,122.9h35.2C440.9,142.2,369.9,71.2,282.7,71.2z M100.9,88.8l3.7,1.4l71.5,73.2l0.8,0.7
			c-0.2-0.2,0.7,1.5-1.5,3.7l-51.9,52l4,10.6c0,0,19.8,53.9,62.2,94.3c41.6,39.8,93.1,61.5,93.1,61.5l11,4.7l52.2-52.3
			c3-3,2.1-3,5.1,0l72,72c3,3,3,2,0,5L369.6,469c-8.2,7-16.5,8.8-26.7,5.4c-39.8-15.6-117.5-49.6-186.6-118.7
			C86.8,286.3,50.7,207.4,37.6,169.2l-0.1-0.2l-0.1-0.2c-2.6-7.1-0.7-17.3,5.5-22.7l0.6-0.5l53.7-55.3L100.9,88.8z M282.7,141.5
			v35.2c29.1,0,52.7,23.6,52.7,52.7h35.2C370.5,181,331.2,141.5,282.7,141.5z"/>
	</g>
</g>
</svg>
